<svg width="85" height="14" viewBox="0 0 85 14" fill="none" xmlns="http://www.w3.org/2000/svg">
<path d="M0 13.6797V0.496094H4.87793C6.2959 0.496094 7.39453 0.797852 8.17383 1.40137C8.95898 1.99902 9.35156 2.83984 9.35156 3.92383C9.35156 4.58594 9.19629 5.17188 8.88574 5.68164C8.5752 6.18555 8.15625 6.56934 7.62891 6.83301C8.37891 7.05566 8.96191 7.43945 9.37793 7.98438C9.7998 8.52344 10.0107 9.18555 10.0107 9.9707C10.0107 10.7207 9.82617 11.374 9.45703 11.9307C9.09375 12.4814 8.57812 12.9121 7.91016 13.2227C7.24805 13.5273 6.46875 13.6797 5.57227 13.6797H0ZM2.70703 6.01562H4.72852C5.33203 6.01562 5.80957 5.87207 6.16113 5.58496C6.5127 5.29785 6.68848 4.9082 6.68848 4.41602C6.68848 3.93555 6.50977 3.55762 6.15234 3.28223C5.80078 3.00098 5.31152 2.86035 4.68457 2.86035H2.70703V6.01562ZM2.70703 11.3154H4.89551C5.37598 11.3154 5.79199 11.248 6.14355 11.1133C6.49512 10.9727 6.76465 10.7764 6.95215 10.5244C7.14551 10.2666 7.24219 9.96777 7.24219 9.62793C7.24219 9.28809 7.1543 8.99805 6.97852 8.75781C6.80859 8.51758 6.55957 8.33594 6.23145 8.21289C5.90332 8.08398 5.51367 8.01953 5.0625 8.01953H2.70703V11.3154Z" fill="black"/>
<path d="M14.3525 13.6797H11.6543V0.144531H14.3525V13.6797Z" fill="black"/>
<path d="M20.6807 13.8555C19.7783 13.8555 18.9697 13.6592 18.2549 13.2666C17.54 12.8682 16.9775 12.3262 16.5674 11.6406C16.1631 10.9492 15.9609 10.1641 15.9609 9.28516C15.9609 8.41211 16.1631 7.63281 16.5674 6.94727C16.9775 6.25586 17.54 5.71094 18.2549 5.3125C18.9697 4.91406 19.7783 4.71484 20.6807 4.71484C21.583 4.71484 22.3857 4.91406 23.0889 5.3125C23.7979 5.71094 24.3545 6.25586 24.7588 6.94727C25.1689 7.63281 25.374 8.41211 25.374 9.28516C25.374 10.1641 25.1689 10.9492 24.7588 11.6406C24.3545 12.3262 23.7979 12.8682 23.0889 13.2666C22.3857 13.6592 21.583 13.8555 20.6807 13.8555ZM20.6719 11.5967C21.0762 11.5967 21.4365 11.4971 21.7529 11.2979C22.0752 11.0928 22.3271 10.8174 22.5088 10.4717C22.6963 10.1201 22.79 9.71875 22.79 9.26758C22.79 8.83398 22.6963 8.44434 22.5088 8.09863C22.3271 7.75293 22.0752 7.48047 21.7529 7.28125C21.4365 7.07617 21.0762 6.97363 20.6719 6.97363C20.2617 6.97363 19.8955 7.07617 19.5732 7.28125C19.2568 7.48047 19.0049 7.75293 18.8174 8.09863C18.6357 8.44434 18.5449 8.83398 18.5449 9.26758C18.5449 9.71875 18.6357 10.1201 18.8174 10.4717C19.0049 10.8174 19.2568 11.0928 19.5732 11.2979C19.8955 11.4971 20.2617 11.5967 20.6719 11.5967Z" fill="black"/>
<path d="M34.7695 12.2822C34.3418 12.7744 33.8174 13.1611 33.1963 13.4424C32.5752 13.7178 31.8926 13.8555 31.1484 13.8555C30.2461 13.8555 29.4375 13.6592 28.7227 13.2666C28.0137 12.8682 27.4541 12.3232 27.0439 11.6318C26.6396 10.9404 26.4375 10.1582 26.4375 9.28516C26.4375 8.40625 26.6396 7.62402 27.0439 6.93848C27.4541 6.24707 28.0137 5.70508 28.7227 5.3125C29.4375 4.91406 30.2461 4.71484 31.1484 4.71484C31.8867 4.71484 32.5664 4.85254 33.1875 5.12793C33.8086 5.40332 34.333 5.78418 34.7607 6.27051L33.2754 7.82617C33.0469 7.5625 32.7568 7.35742 32.4053 7.21094C32.0596 7.05859 31.6963 6.98242 31.3154 6.98242C30.876 6.98242 30.4834 7.08203 30.1377 7.28125C29.792 7.47461 29.5195 7.74414 29.3203 8.08984C29.1211 8.42969 29.0215 8.82227 29.0215 9.26758C29.0215 9.71875 29.1211 10.1201 29.3203 10.4717C29.5195 10.8232 29.792 11.0986 30.1377 11.2979C30.4834 11.4912 30.876 11.5879 31.3154 11.5879C31.6963 11.5879 32.0625 11.5146 32.4141 11.3682C32.7656 11.2158 33.0527 11.0078 33.2754 10.7441L34.7695 12.2822Z" fill="black"/>
<path d="M38.8389 13.6797H36.3164V0.496094H38.8389V8.59961L39.7002 7.5625L42.2314 4.89062H45.3867L41.6689 8.80176L45.8262 13.6797H42.5654L39.9375 10.3838L38.8389 11.3857V13.6797Z" fill="black"/>
<path d="M49.8164 13.6797H47.1094V0.496094H49.8164V6.00684H55.5205V0.496094H58.2275V13.6797H55.5205V8.37109H49.8164V13.6797Z" fill="black"/>
<path d="M64.5557 13.8555C63.6533 13.8555 62.8447 13.6592 62.1299 13.2666C61.415 12.8682 60.8525 12.3262 60.4424 11.6406C60.0381 10.9492 59.8359 10.1641 59.8359 9.28516C59.8359 8.41211 60.0381 7.63281 60.4424 6.94727C60.8525 6.25586 61.415 5.71094 62.1299 5.3125C62.8447 4.91406 63.6533 4.71484 64.5557 4.71484C65.458 4.71484 66.2607 4.91406 66.9639 5.3125C67.6729 5.71094 68.2295 6.25586 68.6338 6.94727C69.0439 7.63281 69.249 8.41211 69.249 9.28516C69.249 10.1641 69.0439 10.9492 68.6338 11.6406C68.2295 12.3262 67.6729 12.8682 66.9639 13.2666C66.2607 13.6592 65.458 13.8555 64.5557 13.8555ZM64.5469 11.5967C64.9512 11.5967 65.3115 11.4971 65.6279 11.2979C65.9502 11.0928 66.2021 10.8174 66.3838 10.4717C66.5713 10.1201 66.665 9.71875 66.665 9.26758C66.665 8.83398 66.5713 8.44434 66.3838 8.09863C66.2021 7.75293 65.9502 7.48047 65.6279 7.28125C65.3115 7.07617 64.9512 6.97363 64.5469 6.97363C64.1367 6.97363 63.7705 7.07617 63.4482 7.28125C63.1318 7.48047 62.8799 7.75293 62.6924 8.09863C62.5107 8.44434 62.4199 8.83398 62.4199 9.26758C62.4199 9.71875 62.5107 10.1201 62.6924 10.4717C62.8799 10.8174 63.1318 11.0928 63.4482 11.2979C63.7705 11.4971 64.1367 11.5967 64.5469 11.5967Z" fill="black"/>
<path d="M73.5557 13.6797H70.8574V0.144531H73.5557V13.6797Z" fill="black"/>
<path d="M83.8037 12.6953C82.7139 13.4688 81.5215 13.8555 80.2266 13.8555C79.2656 13.8555 78.4014 13.6504 77.6338 13.2402C76.8721 12.8242 76.2686 12.2617 75.8232 11.5527C75.3838 10.8438 75.1641 10.0439 75.1641 9.15332C75.1641 8.30371 75.3633 7.54492 75.7617 6.87695C76.166 6.20898 76.7139 5.68164 77.4053 5.29492C78.0967 4.9082 78.8818 4.71484 79.7607 4.71484C80.6689 4.71484 81.4688 4.92871 82.1602 5.35645C82.8516 5.77832 83.3906 6.37012 83.7773 7.13184C84.1641 7.8877 84.3574 8.76367 84.3574 9.75977V10.041H77.8799C77.9854 10.3867 78.1582 10.6914 78.3984 10.9551C78.6387 11.2129 78.9375 11.418 79.2949 11.5703C79.6523 11.7227 80.0625 11.7988 80.5254 11.7988C81.4219 11.7988 82.2568 11.5088 83.0303 10.9287L83.8037 12.6953ZM77.7656 8.75781H82.0283C81.9814 8.37695 81.8613 8.04297 81.668 7.75586C81.4805 7.46289 81.2314 7.23438 80.9209 7.07031C80.6162 6.90625 80.2734 6.82422 79.8926 6.82422C79.5059 6.82422 79.1602 6.90918 78.8555 7.0791C78.5566 7.24902 78.3135 7.47754 78.126 7.76465C77.9385 8.05176 77.8184 8.38281 77.7656 8.75781Z" fill="black"/>
</svg>
