<svg width="24" height="23" viewBox="0 0 24 23" fill="none" xmlns="http://www.w3.org/2000/svg">
<g filter="url(#filter0_d_0_317)">
<path d="M12 14.6875C11.7515 14.6864 11.5132 14.5883 11.3359 14.414L5.08594 8.16404C4.90982 7.98792 4.81087 7.74905 4.81087 7.49998C4.81087 7.25091 4.90982 7.01204 5.08594 6.83592C5.26206 6.6598 5.50093 6.56085 5.75 6.56085C5.99907 6.56085 6.23794 6.6598 6.41406 6.83592L12 12.4219L17.5859 6.83592C17.7621 6.6598 18.0009 6.56085 18.25 6.56085C18.4991 6.56085 18.7379 6.6598 18.9141 6.83592C19.0902 7.01204 19.1891 7.25091 19.1891 7.49998C19.1891 7.74905 19.0902 7.98792 18.9141 8.16404L12.6641 14.414C12.4868 14.5883 12.2485 14.6864 12 14.6875Z" fill="#666666"/>
</g>
<defs>
<filter id="filter0_d_0_317" x="-2" y="0" width="28" height="28" filterUnits="userSpaceOnUse" color-interpolation-filters="sRGB">
<feFlood flood-opacity="0" result="BackgroundImageFix"/>
<feColorMatrix in="SourceAlpha" type="matrix" values="0 0 0 0 0 0 0 0 0 0 0 0 0 0 0 0 0 0 127 0" result="hardAlpha"/>
<feOffset dy="4"/>
<feGaussianBlur stdDeviation="2"/>
<feComposite in2="hardAlpha" operator="out"/>
<feColorMatrix type="matrix" values="0 0 0 0 0 0 0 0 0 0 0 0 0 0 0 0 0 0 0.25 0"/>
<feBlend mode="normal" in2="BackgroundImageFix" result="effect1_dropShadow_0_317"/>
<feBlend mode="normal" in="SourceGraphic" in2="effect1_dropShadow_0_317" result="shape"/>
</filter>
</defs>
</svg>
