<svg width="17" height="16" viewBox="0 0 17 16" fill="none" xmlns="http://www.w3.org/2000/svg">
<path d="M15.1667 8.00001C15.1667 8.14735 15.1081 8.28866 15.0039 8.39285C14.8998 8.49703 14.7584 8.55557 14.6111 8.55557H9.05555V14.1111C9.05555 14.2585 8.99702 14.3998 8.89283 14.504C8.78865 14.6081 8.64734 14.6667 8.5 14.6667C8.35265 14.6667 8.21135 14.6081 8.10716 14.504C8.00297 14.3998 7.94444 14.2585 7.94444 14.1111V8.55557H2.38888C2.24154 8.55557 2.10023 8.49703 1.99605 8.39285C1.89186 8.28866 1.83333 8.14735 1.83333 8.00001C1.83333 7.85267 1.89186 7.71136 1.99605 7.60717C2.10023 7.50299 2.24154 7.44445 2.38888 7.44445H7.94444V1.8889C7.94444 1.74156 8.00297 1.60025 8.10716 1.49606C8.21135 1.39188 8.35265 1.33334 8.5 1.33334C8.64734 1.33334 8.78865 1.39188 8.89283 1.49606C8.99702 1.60025 9.05555 1.74156 9.05555 1.8889V7.44445H14.6111C14.7584 7.44445 14.8998 7.50299 15.0039 7.60717C15.1081 7.71136 15.1667 7.85267 15.1667 8.00001Z" fill="#A4A4A4"/>
</svg>
