<svg width="17" height="16" viewBox="0 0 17 16" fill="none" xmlns="http://www.w3.org/2000/svg">
<path d="M15.1667 8C15.1667 8.14734 15.1081 8.28865 15.0039 8.39283C14.8998 8.49702 14.7584 8.55555 14.6111 8.55555H9.05555V14.1111C9.05555 14.2584 8.99702 14.3998 8.89283 14.5039C8.78865 14.6081 8.64734 14.6667 8.5 14.6667C8.35265 14.6667 8.21135 14.6081 8.10716 14.5039C8.00297 14.3998 7.94444 14.2584 7.94444 14.1111V8.55555H2.38888C2.24154 8.55555 2.10023 8.49702 1.99605 8.39283C1.89186 8.28865 1.83333 8.14734 1.83333 8C1.83333 7.85265 1.89186 7.71135 1.99605 7.60716C2.10023 7.50297 2.24154 7.44444 2.38888 7.44444H7.94444V1.88888C7.94444 1.74154 8.00297 1.60023 8.10716 1.49605C8.21135 1.39186 8.35265 1.33333 8.5 1.33333C8.64734 1.33333 8.78865 1.39186 8.89283 1.49605C8.99702 1.60023 9.05555 1.74154 9.05555 1.88888V7.44444H14.6111C14.7584 7.44444 14.8998 7.50297 15.0039 7.60716C15.1081 7.71135 15.1667 7.85265 15.1667 8Z" fill="#A4A4A4"/>
</svg>
